Coordinates
version=1
nRows=8
nColumns=40
inDegrees=yes

Units are S.I. units (second, meters, Newtons, ...)
If the header above contains a line with 'inDegrees', this indicates whether rotational values are in degrees (yes) or radians (no).

endheader
time	pelvis_tilt	pelvis_list	pelvis_rotation	pelvis_tx	pelvis_ty	pelvis_tz	hip_flexion_r	hip_adduction_r	hip_rotation_r	knee_angle_r	knee_angle_r_beta	ankle_angle_r	subtalar_angle_r	mtp_angle_r	hip_flexion_l	hip_adduction_l	hip_rotation_l	knee_angle_l	knee_angle_l_beta	ankle_angle_l	subtalar_angle_l	mtp_angle_l	lumbar_extension	lumbar_bending	lumbar_rotation	arm_flex_r	arm_add_r	arm_rot_r	elbow_flex_r	pro_sup_r	wrist_flex_r	wrist_dev_r	arm_flex_l	arm_add_l	arm_rot_l	elbow_flex_l	pro_sup_l	wrist_flex_l	wrist_dev_l
      4.39500000	     -7.63742921	      2.65563651	     11.78456596	     -3.56660710	      0.91363804	      0.26675282	     14.66471320	     -3.89610961	     -9.86180044	    106.12366451	      1.85220736	     -0.56255387	      0.00000000	      0.00000000	     27.32011665	      5.17865610	     -1.68774697	     48.74896095	      0.85082988	     26.15737211	      0.00000000	      0.00000000	    -34.22588681	      1.97561838	     -6.12720374	     -8.18012187	    -22.87891446	     -0.92604838	     91.83794347	     88.07234105	      0.00000000	      0.00000000	      4.12037028	    -22.63543387	     14.30999917	    115.13468841	      1.47667935	      0.00000000	      0.00000000
      4.40000000	     -7.79443522	      2.37687210	     12.25665195	     -3.54196923	      0.91233196	      0.26565075	     17.93102745	     -4.46014507	     -9.72817483	    108.61831951	      1.89574730	      1.61383723	      0.00000000	      0.00000000	     25.93611840	      4.78216954	     -1.30347677	     49.19513731	      0.85861712	     27.65804658	      0.00000000	      0.00000000	    -33.88277361	      2.65635596	     -7.36446300	     -9.81160215	    -23.65964325	     -1.59860647	     91.80571638	     87.99379014	      0.00000000	      0.00000000	      6.58215566	    -22.08091464	     14.65424154	    115.28704312	      1.48659538	      0.00000000	      0.00000000
      4.40500000	     -8.69471118	      1.77227933	     12.63301851	     -3.51801400	      0.90973556	      0.26481020	     22.35202870	     -4.74374254	     -9.34585726	    110.96211522	      1.93665426	      3.19822039	      0.00000000	      0.00000000	     25.60026411	      4.14362729	     -0.90670602	     49.87846886	      0.87054351	     28.41448566	      0.00000000	      0.00000000	    -32.67801219	      3.41922784	     -7.91690421	    -12.18918473	    -24.38879797	     -3.08371885	     92.28370529	     88.03149842	      0.00000000	      0.00000000	      9.47557993	    -21.50195432	     15.65278784	    115.14060245	      1.47701985	      0.00000000	      0.00000000
      4.41000000	     -9.33585443	      1.21684165	     12.87296565	     -3.49333064	      0.90775675	      0.26412928	     26.42628868	     -4.96710619	     -8.85722600	    112.80686149	      1.96885115	      4.89345107	      0.00000000	      0.00000000	     24.76105985	      3.43072669	     -0.60625566	     50.17985292	      0.87580365	     29.29867748	      0.00000000	      0.00000000	    -31.70521733	      4.13031051	     -8.56953373	    -14.40669173	    -25.21511870	     -4.24616956	     92.75015930	     88.01905501	      0.00000000	      0.00000000	     12.02323379	    -21.04480914	     16.28212305	    115.21949593	      1.48949843	      0.00000000	      0.00000000
      4.41500000	     -9.72850295	      0.71297012	     13.00658199	     -3.46796928	      0.90636682	      0.26350276	     30.13878663	     -5.13748310	     -8.30740198	    114.17869415	      1.99279415	      6.81339393	      0.00000000	      0.00000000	     23.42630256	      2.66266460	     -0.39178356	     50.09088428	      0.87425086	     30.21024350	      0.00000000	      0.00000000	    -30.96694936	      4.80708235	     -9.28454948	    -16.51563443	    -26.18006752	     -5.13513550	     93.26076750	     87.97708254	      0.00000000	      0.00000000	     14.26672338	    -20.68347748	     16.56712570	    115.50948296	      1.42270016	      0.00000000	      0.00000000
      4.42000000	    -10.71285264	     -0.03965476	     12.96018343	     -3.44298531	      0.90391092	      0.26327586	     34.75698210	     -5.01055964	     -7.56813499	    115.29861454	      2.01234045	      7.89146078	      0.00000000	      0.00000000	     22.83249208	      1.68582299	     -0.29991687	     50.03763627	      0.87332150	     30.53747446	      0.00000000	      0.00000000	    -29.52943665	      5.50639721	     -9.32472568	    -19.33206061	    -26.95821399	     -6.80096085	     94.13054885	     87.97661159	      0.00000000	      0.00000000	     16.84228413	    -20.30773729	     17.48849919	    115.55957208	      1.49469220	      0.00000000	      0.00000000
      4.42500000	    -11.33321775	     -0.73175398	     12.83028389	     -3.41716506	      0.90225786	      0.26295346	     38.78454579	     -4.82448108	     -6.88122974	    115.92029291	      2.02319078	      9.44779242	      0.00000000	      0.00000000	     21.56410422	      0.67159269	     -0.26765311	     49.51338041	      0.86417151	     30.98252126	      0.00000000	      0.00000000	    -28.45714938	      6.23340277	     -9.56083256	    -21.87562526	    -27.91870711	     -8.04283435	     94.93499921	     87.95474630	      0.00000000	      0.00000000	     18.93398377	    -20.04044458	     17.87108249	    115.93796477	      1.46467007	      0.00000000	      0.00000000
      4.43000000	    -12.15497813	     -1.49104895	     12.57654327	     -3.39130395	      0.90031924	      0.26279971	     43.07689532	     -4.49758789	     -6.13228550	    116.19614843	      2.02800537	     10.36047341	      0.00000000	      0.00000000	     20.45274679	     -0.40650882	     -0.32537141	     48.83186999	      0.85227691	     30.99764591	      0.00000000	      0.00000000	    -27.13968289	      6.94572435	     -9.45792637	    -24.77550958	    -28.76734180	     -9.62989503	     95.88961186	     87.93217057	      0.00000000	      0.00000000	     21.11055314	    -19.77181229	     18.51279616	    116.22377934	      1.49721989	      0.00000000	      0.00000000
